<?xml version="1.0" encoding="utf-8"?>
<!-- Generator: Adobe Illustrator 28.1.0, SVG Export Plug-In . SVG Version: 6.00 Build 0)  -->
<svg version="1.1" id="Layer_1" xmlns="http://www.w3.org/2000/svg" xmlns:xlink="http://www.w3.org/1999/xlink" x="0px" y="0px"
	 viewBox="0 0 79.65 15.31" style="enable-background:new 0 0 79.65 15.31;" xml:space="preserve">
<style type="text/css">
	.st0{fill:url(#SVGID_1_);}
	.st1{opacity:0.5;fill:url(#SVGID_00000137831358535476340840000005450775682324481976_);}
	.st2{fill:url(#SVGID_00000060716384132970869820000012539782711440274569_);}
	.st3{opacity:0.5;fill:url(#SVGID_00000121238259625974283650000008471398505781712516_);}
	.st4{fill:url(#SVGID_00000160881668346683757830000007221954047789635986_);}
	.st5{opacity:0.5;fill:url(#SVGID_00000127724140644746576480000017082356644723719103_);}
	.st6{fill:url(#SVGID_00000082335023308770952070000012533825005998650521_);}
	.st7{opacity:0.5;fill:url(#SVGID_00000070839226637232601790000005839321191569767045_);}
	.st8{fill:url(#SVGID_00000054954001553977445720000003906427879973820298_);}
	.st9{opacity:0.5;fill:url(#SVGID_00000150098589358486722230000013842764229633298063_);}
	.st10{fill:url(#SVGID_00000057846348540165976410000004308977129923753897_);}
	.st11{opacity:0.5;fill:url(#SVGID_00000011725638469804386180000001636485083074237117_);}
</style>
<g>
	<g>
		<g>
			<g>
				<radialGradient id="SVGID_1_" cx="3.7931" cy="13.5453" r="12.6198" gradientUnits="userSpaceOnUse">
					<stop  offset="0.3548" style="stop-color:#FFC200"/>
					<stop  offset="0.5084" style="stop-color:#FFBD07"/>
					<stop  offset="0.7249" style="stop-color:#FFAF19"/>
					<stop  offset="0.9777" style="stop-color:#FF9737"/>
					<stop  offset="1" style="stop-color:#FF953A"/>
				</radialGradient>
				<path class="st0" d="M11.58,12.98c0.05,0.36-0.17,0.53-0.5,0.36l-2.73-1.37c-0.33-0.17-0.87-0.17-1.2-0.01l-2.74,1.35
					c-0.33,0.16-0.55,0-0.5-0.37l0.46-3.02c0.06-0.36-0.11-0.88-0.36-1.14L1.89,6.61C1.64,6.34,1.72,6.08,2.09,6.02L5.1,5.53
					c0.36-0.06,0.8-0.37,0.97-0.7l1.42-2.7c0.17-0.33,0.45-0.32,0.62,0l1.4,2.71c0.17,0.33,0.6,0.64,0.96,0.71l3.01,0.52
					c0.36,0.06,0.45,0.33,0.19,0.59l-2.15,2.17c-0.26,0.26-0.43,0.77-0.37,1.13L11.58,12.98z"/>
				
					<radialGradient id="SVGID_00000003822085898424493120000017553889700684310185_" cx="2.8334" cy="16.6728" r="18.2467" gradientUnits="userSpaceOnUse">
					<stop  offset="0.3548" style="stop-color:#FFC200"/>
					<stop  offset="0.5084" style="stop-color:#FFBD07"/>
					<stop  offset="0.7249" style="stop-color:#FFAF19"/>
					<stop  offset="0.9777" style="stop-color:#FF9737"/>
					<stop  offset="1" style="stop-color:#FF953A"/>
				</radialGradient>
				<path style="opacity:0.5;fill:url(#SVGID_00000003822085898424493120000017553889700684310185_);" d="M7.8,2.04
					c0.06,0,0.12,0.06,0.17,0.16l1.4,2.71c0.19,0.37,0.66,0.71,1.07,0.79l3.01,0.52c0.11,0.02,0.19,0.06,0.21,0.12
					c0.02,0.05-0.02,0.14-0.1,0.22l-2.15,2.17c-0.29,0.29-0.48,0.85-0.42,1.26L11.43,13c0.01,0.1,0,0.18-0.03,0.22
					c-0.01,0.01-0.03,0.03-0.08,0.03c-0.05,0-0.11-0.02-0.17-0.05l-2.73-1.37C8.24,11.74,8,11.69,7.75,11.69
					c-0.25,0-0.48,0.05-0.66,0.14l-2.74,1.35c-0.06,0.03-0.12,0.05-0.17,0.05c-0.06,0-0.08-0.02-0.08-0.03
					c-0.03-0.04-0.05-0.12-0.03-0.22l0.46-3.02c0.06-0.41-0.11-0.97-0.4-1.26L2,6.5C1.92,6.42,1.88,6.34,1.9,6.28
					C1.92,6.23,2,6.19,2.11,6.17l3.01-0.49C5.53,5.61,6.01,5.27,6.2,4.9l1.42-2.7C7.68,2.1,7.74,2.04,7.8,2.04 M7.8,1.89
					c-0.11,0-0.22,0.08-0.31,0.24l-1.42,2.7C5.9,5.15,5.46,5.47,5.1,5.53L2.09,6.02C1.72,6.08,1.64,6.34,1.89,6.61l2.13,2.19
					c0.26,0.26,0.42,0.78,0.36,1.14l-0.46,3.02c-0.04,0.27,0.07,0.43,0.26,0.43c0.07,0,0.15-0.02,0.23-0.06l2.74-1.35
					c0.16-0.08,0.38-0.12,0.59-0.12c0.22,0,0.44,0.04,0.6,0.13l2.73,1.37c0.09,0.04,0.17,0.06,0.24,0.06c0.19,0,0.3-0.16,0.26-0.42
					l-0.44-3.02c-0.05-0.36,0.12-0.88,0.37-1.13l2.15-2.17c0.26-0.26,0.17-0.53-0.19-0.59l-3.01-0.52c-0.36-0.06-0.8-0.38-0.96-0.71
					l-1.4-2.71C8.02,1.97,7.91,1.89,7.8,1.89L7.8,1.89z"/>
			</g>
			<g>
				
					<radialGradient id="SVGID_00000145773388350329504980000000261581837416482471_" cx="19.5587" cy="13.5453" r="12.6194" gradientUnits="userSpaceOnUse">
					<stop  offset="0.3548" style="stop-color:#FFC200"/>
					<stop  offset="0.5084" style="stop-color:#FFBD07"/>
					<stop  offset="0.7249" style="stop-color:#FFAF19"/>
					<stop  offset="0.9777" style="stop-color:#FF9737"/>
					<stop  offset="1" style="stop-color:#FF953A"/>
				</radialGradient>
				<path style="fill:url(#SVGID_00000145773388350329504980000000261581837416482471_);" d="M27.34,12.98
					c0.05,0.36-0.17,0.53-0.5,0.36l-2.73-1.37c-0.33-0.17-0.87-0.17-1.2-0.01l-2.74,1.35c-0.33,0.16-0.55,0-0.5-0.37l0.46-3.02
					c0.06-0.36-0.11-0.88-0.36-1.14l-2.13-2.19c-0.26-0.26-0.17-0.53,0.19-0.59l3.01-0.49c0.36-0.06,0.8-0.37,0.97-0.7l1.42-2.7
					c0.17-0.33,0.45-0.32,0.62,0l1.4,2.71c0.17,0.33,0.6,0.64,0.96,0.71l3.01,0.52c0.36,0.06,0.45,0.33,0.19,0.59l-2.15,2.17
					c-0.26,0.26-0.43,0.77-0.37,1.13L27.34,12.98z"/>
				
					<radialGradient id="SVGID_00000123410092935176661570000002892437933380161940_" cx="18.5991" cy="16.6728" r="18.2462" gradientUnits="userSpaceOnUse">
					<stop  offset="0.3548" style="stop-color:#FFC200"/>
					<stop  offset="0.5084" style="stop-color:#FFBD07"/>
					<stop  offset="0.7249" style="stop-color:#FFAF19"/>
					<stop  offset="0.9777" style="stop-color:#FF9737"/>
					<stop  offset="1" style="stop-color:#FF953A"/>
				</radialGradient>
				<path style="opacity:0.5;fill:url(#SVGID_00000123410092935176661570000002892437933380161940_);" d="M23.56,2.04
					c0.06,0,0.12,0.06,0.18,0.16l1.4,2.71c0.19,0.37,0.66,0.71,1.07,0.79l3.01,0.52c0.11,0.02,0.19,0.06,0.21,0.12
					c0.02,0.05-0.02,0.14-0.1,0.22l-2.15,2.17c-0.29,0.29-0.48,0.85-0.42,1.26L27.2,13c0.01,0.1,0,0.18-0.03,0.22
					c-0.01,0.01-0.03,0.03-0.08,0.03c-0.05,0-0.11-0.02-0.17-0.05l-2.73-1.37c-0.18-0.09-0.42-0.14-0.67-0.14
					c-0.25,0-0.48,0.05-0.66,0.14l-2.74,1.35c-0.06,0.03-0.12,0.05-0.17,0.05c-0.06,0-0.08-0.02-0.09-0.03
					c-0.03-0.04-0.05-0.12-0.03-0.22l0.46-3.02c0.06-0.41-0.12-0.97-0.41-1.26L17.77,6.5c-0.08-0.08-0.12-0.16-0.1-0.22
					c0.02-0.05,0.1-0.1,0.21-0.12l3.01-0.49c0.41-0.07,0.88-0.41,1.08-0.78l1.42-2.7C23.44,2.1,23.51,2.04,23.56,2.04 M23.56,1.89
					c-0.11,0-0.22,0.08-0.31,0.24l-1.42,2.7c-0.17,0.32-0.61,0.64-0.97,0.7l-3.01,0.49c-0.36,0.06-0.45,0.32-0.19,0.59l2.13,2.19
					c0.26,0.26,0.42,0.78,0.36,1.14l-0.46,3.02c-0.04,0.27,0.07,0.43,0.26,0.43c0.07,0,0.15-0.02,0.23-0.06l2.74-1.35
					c0.16-0.08,0.38-0.12,0.59-0.12c0.22,0,0.44,0.04,0.6,0.13l2.73,1.37c0.09,0.04,0.17,0.06,0.24,0.06c0.19,0,0.3-0.16,0.26-0.42
					l-0.44-3.02c-0.05-0.36,0.12-0.88,0.37-1.13l2.15-2.17c0.26-0.26,0.17-0.53-0.19-0.59l-3.01-0.52
					c-0.36-0.06-0.79-0.38-0.96-0.71l-1.4-2.71C23.79,1.97,23.68,1.89,23.56,1.89L23.56,1.89z"/>
			</g>
			<g>
				
					<radialGradient id="SVGID_00000101064905029814965670000005209709186209160589_" cx="35.3241" cy="13.5453" r="12.6195" gradientUnits="userSpaceOnUse">
					<stop  offset="0.3548" style="stop-color:#FFC200"/>
					<stop  offset="0.5084" style="stop-color:#FFBD07"/>
					<stop  offset="0.7249" style="stop-color:#FFAF19"/>
					<stop  offset="0.9777" style="stop-color:#FF9737"/>
					<stop  offset="1" style="stop-color:#FF953A"/>
				</radialGradient>
				<path style="fill:url(#SVGID_00000101064905029814965670000005209709186209160589_);" d="M43.11,12.98
					c0.05,0.36-0.17,0.53-0.5,0.36l-2.73-1.37c-0.33-0.17-0.87-0.17-1.19-0.01l-2.74,1.35c-0.33,0.16-0.55,0-0.5-0.37l0.46-3.02
					c0.06-0.36-0.11-0.88-0.36-1.14l-2.13-2.19c-0.26-0.26-0.17-0.53,0.19-0.59l3.01-0.49c0.36-0.06,0.8-0.37,0.97-0.7l1.42-2.7
					c0.17-0.33,0.45-0.32,0.62,0l1.4,2.71c0.17,0.33,0.6,0.64,0.96,0.71l3.01,0.52c0.36,0.06,0.45,0.33,0.19,0.59l-2.15,2.17
					c-0.26,0.26-0.43,0.77-0.37,1.13L43.11,12.98z"/>
				
					<radialGradient id="SVGID_00000096767661633405443580000017320664594900460701_" cx="34.3645" cy="16.6728" r="18.2463" gradientUnits="userSpaceOnUse">
					<stop  offset="0.3548" style="stop-color:#FFC200"/>
					<stop  offset="0.5084" style="stop-color:#FFBD07"/>
					<stop  offset="0.7249" style="stop-color:#FFAF19"/>
					<stop  offset="0.9777" style="stop-color:#FF9737"/>
					<stop  offset="1" style="stop-color:#FF953A"/>
				</radialGradient>
				<path style="opacity:0.5;fill:url(#SVGID_00000096767661633405443580000017320664594900460701_);" d="M39.33,2.04
					c0.06,0,0.12,0.06,0.18,0.16l1.4,2.71c0.19,0.37,0.66,0.71,1.07,0.79l3.01,0.52c0.11,0.02,0.19,0.06,0.21,0.12
					c0.02,0.05-0.02,0.14-0.1,0.22l-2.15,2.17c-0.29,0.29-0.48,0.85-0.42,1.26L42.96,13c0.01,0.1,0,0.18-0.03,0.22
					c-0.01,0.01-0.03,0.03-0.08,0.03c-0.05,0-0.11-0.02-0.17-0.05l-2.73-1.37c-0.18-0.09-0.42-0.14-0.67-0.14
					c-0.25,0-0.48,0.05-0.66,0.14l-2.74,1.35c-0.06,0.03-0.12,0.05-0.17,0.05c-0.06,0-0.08-0.02-0.09-0.03
					c-0.03-0.04-0.05-0.12-0.03-0.22l0.46-3.02c0.06-0.41-0.12-0.97-0.41-1.26L33.53,6.5c-0.08-0.08-0.12-0.16-0.1-0.22
					c0.02-0.05,0.1-0.1,0.21-0.12l3.01-0.49c0.41-0.07,0.88-0.41,1.08-0.78l1.42-2.7C39.21,2.1,39.27,2.04,39.33,2.04 M39.33,1.89
					c-0.11,0-0.22,0.08-0.31,0.24l-1.42,2.7c-0.17,0.32-0.61,0.64-0.97,0.7l-3.01,0.49c-0.36,0.06-0.45,0.32-0.19,0.59l2.13,2.19
					c0.26,0.26,0.42,0.78,0.36,1.14l-0.46,3.02c-0.04,0.27,0.07,0.43,0.26,0.43c0.07,0,0.15-0.02,0.23-0.06l2.74-1.35
					c0.16-0.08,0.38-0.12,0.59-0.12c0.22,0,0.44,0.04,0.6,0.13l2.73,1.37c0.09,0.04,0.17,0.06,0.24,0.06c0.19,0,0.3-0.16,0.26-0.42
					l-0.44-3.02c-0.05-0.36,0.12-0.88,0.37-1.13l2.15-2.17c0.26-0.26,0.17-0.53-0.19-0.59L42,5.55c-0.36-0.06-0.8-0.38-0.96-0.71
					l-1.4-2.71C39.55,1.97,39.44,1.89,39.33,1.89L39.33,1.89z"/>
			</g>
			<g>
				
					<radialGradient id="SVGID_00000067216746987020890190000012965455288647919005_" cx="51.0894" cy="13.5453" r="12.6196" gradientUnits="userSpaceOnUse">
					<stop  offset="0.3548" style="stop-color:#FFC200"/>
					<stop  offset="0.5084" style="stop-color:#FFBD07"/>
					<stop  offset="0.7249" style="stop-color:#FFAF19"/>
					<stop  offset="0.9777" style="stop-color:#FF9737"/>
					<stop  offset="1" style="stop-color:#FF953A"/>
				</radialGradient>
				<path style="fill:url(#SVGID_00000067216746987020890190000012965455288647919005_);" d="M58.88,12.98
					c0.05,0.36-0.17,0.53-0.5,0.36l-2.73-1.37c-0.33-0.17-0.87-0.17-1.2-0.01l-2.74,1.35c-0.33,0.16-0.55,0-0.5-0.37l0.46-3.02
					c0.06-0.36-0.11-0.88-0.36-1.14l-2.13-2.19c-0.26-0.26-0.17-0.53,0.19-0.59l3.01-0.49c0.36-0.06,0.8-0.37,0.97-0.7l1.42-2.7
					c0.17-0.33,0.45-0.32,0.62,0l1.4,2.71c0.17,0.33,0.6,0.64,0.96,0.71l3.01,0.52c0.36,0.06,0.45,0.33,0.19,0.59l-2.15,2.17
					c-0.26,0.26-0.43,0.77-0.37,1.13L58.88,12.98z"/>
				
					<radialGradient id="SVGID_00000160188667689535222780000012157911526666194563_" cx="50.1297" cy="16.6728" r="18.2464" gradientUnits="userSpaceOnUse">
					<stop  offset="0.3548" style="stop-color:#FFC200"/>
					<stop  offset="0.5084" style="stop-color:#FFBD07"/>
					<stop  offset="0.7249" style="stop-color:#FFAF19"/>
					<stop  offset="0.9777" style="stop-color:#FF9737"/>
					<stop  offset="1" style="stop-color:#FF953A"/>
				</radialGradient>
				<path style="opacity:0.5;fill:url(#SVGID_00000160188667689535222780000012157911526666194563_);" d="M55.09,2.04
					c0.06,0,0.12,0.06,0.18,0.16l1.4,2.71c0.19,0.37,0.66,0.71,1.07,0.79l3.01,0.52c0.11,0.02,0.19,0.06,0.21,0.12
					c0.02,0.05-0.02,0.14-0.1,0.22l-2.15,2.17c-0.29,0.29-0.48,0.85-0.42,1.26L58.73,13c0.01,0.1,0,0.18-0.03,0.22
					c-0.01,0.01-0.03,0.03-0.08,0.03c-0.05,0-0.11-0.02-0.17-0.05l-2.73-1.37c-0.18-0.09-0.42-0.14-0.67-0.14
					c-0.25,0-0.48,0.05-0.66,0.14l-2.74,1.35c-0.06,0.03-0.12,0.05-0.17,0.05c-0.06,0-0.08-0.02-0.09-0.03
					c-0.03-0.04-0.05-0.12-0.03-0.22l0.46-3.02c0.06-0.41-0.11-0.97-0.4-1.26L49.3,6.5c-0.08-0.08-0.12-0.16-0.1-0.22
					c0.02-0.05,0.1-0.1,0.21-0.12l3.01-0.49c0.41-0.07,0.88-0.41,1.08-0.78l1.42-2.7C54.97,2.1,55.04,2.04,55.09,2.04 M55.09,1.89
					c-0.11,0-0.22,0.08-0.31,0.24l-1.42,2.7c-0.17,0.32-0.61,0.64-0.97,0.7l-3.01,0.49c-0.36,0.06-0.45,0.32-0.19,0.59l2.13,2.19
					c0.26,0.26,0.42,0.78,0.36,1.14l-0.46,3.02c-0.04,0.27,0.07,0.43,0.26,0.43c0.07,0,0.15-0.02,0.23-0.06l2.74-1.35
					c0.16-0.08,0.38-0.12,0.59-0.12c0.22,0,0.44,0.04,0.6,0.13l2.73,1.37c0.09,0.04,0.17,0.06,0.24,0.06c0.19,0,0.3-0.16,0.26-0.42
					l-0.44-3.02c-0.05-0.36,0.12-0.88,0.37-1.13l2.15-2.17c0.26-0.26,0.17-0.53-0.19-0.59l-3.01-0.52c-0.36-0.06-0.8-0.38-0.96-0.71
					l-1.4-2.71C55.32,1.97,55.21,1.89,55.09,1.89L55.09,1.89z"/>
			</g>
			<g>
				<g>
					
						<radialGradient id="SVGID_00000098181165486435258370000000641628868008560518_" cx="66.8545" cy="13.5453" r="12.6199" gradientUnits="userSpaceOnUse">
						<stop  offset="0.3548" style="stop-color:#FFC200"/>
						<stop  offset="0.5084" style="stop-color:#FFBD07"/>
						<stop  offset="0.7249" style="stop-color:#FFAF19"/>
						<stop  offset="0.9777" style="stop-color:#FF9737"/>
						<stop  offset="1" style="stop-color:#FF953A"/>
					</radialGradient>
					<path style="fill:url(#SVGID_00000098181165486435258370000000641628868008560518_);" d="M74.64,12.98
						c0.05,0.36-0.17,0.53-0.5,0.36l-2.73-1.37c-0.33-0.17-0.87-0.17-1.19-0.01l-2.74,1.35c-0.33,0.16-0.55,0-0.5-0.37l0.46-3.02
						c0.06-0.36-0.11-0.88-0.36-1.14l-2.13-2.19c-0.26-0.26-0.17-0.53,0.19-0.59l3.01-0.49c0.36-0.06,0.8-0.37,0.97-0.7l1.42-2.7
						c0.17-0.33,0.45-0.32,0.62,0l1.4,2.71c0.17,0.33,0.6,0.64,0.96,0.71l3.01,0.52c0.36,0.06,0.45,0.33,0.19,0.59l-2.15,2.17
						c-0.26,0.26-0.43,0.77-0.37,1.13L74.64,12.98z"/>
					
						<radialGradient id="SVGID_00000027606025557591090500000011719128043013462656_" cx="65.8948" cy="16.6728" r="18.2469" gradientUnits="userSpaceOnUse">
						<stop  offset="0.3548" style="stop-color:#FFC200"/>
						<stop  offset="0.5084" style="stop-color:#FFBD07"/>
						<stop  offset="0.7249" style="stop-color:#FFAF19"/>
						<stop  offset="0.9777" style="stop-color:#FF9737"/>
						<stop  offset="1" style="stop-color:#FF953A"/>
					</radialGradient>
					<path style="opacity:0.5;fill:url(#SVGID_00000027606025557591090500000011719128043013462656_);" d="M70.86,2.04
						c0.06,0,0.12,0.06,0.18,0.16l1.4,2.71c0.19,0.37,0.66,0.71,1.07,0.79l3.01,0.52c0.11,0.02,0.19,0.06,0.21,0.12
						c0.02,0.05-0.02,0.14-0.1,0.22l-2.15,2.17C74.18,9.01,74,9.57,74.05,9.98L74.49,13c0.01,0.1,0,0.18-0.03,0.22
						c-0.01,0.01-0.03,0.03-0.08,0.03c-0.05,0-0.11-0.02-0.17-0.05l-2.73-1.37c-0.18-0.09-0.42-0.14-0.67-0.14
						c-0.25,0-0.48,0.05-0.66,0.14l-2.74,1.35c-0.06,0.03-0.12,0.05-0.17,0.05c-0.06,0-0.08-0.02-0.08-0.03
						c-0.04-0.04-0.05-0.12-0.03-0.22l0.46-3.02c0.06-0.41-0.11-0.97-0.4-1.26L65.06,6.5c-0.08-0.08-0.12-0.16-0.1-0.22
						c0.02-0.05,0.1-0.1,0.21-0.12l3.01-0.49c0.41-0.07,0.88-0.41,1.08-0.78l1.42-2.7C70.74,2.1,70.8,2.04,70.86,2.04 M70.86,1.89
						c-0.11,0-0.22,0.08-0.31,0.24l-1.42,2.7c-0.17,0.32-0.61,0.64-0.97,0.7l-3.01,0.49c-0.36,0.06-0.45,0.32-0.19,0.59l2.13,2.19
						c0.26,0.26,0.42,0.78,0.36,1.14l-0.46,3.02c-0.04,0.27,0.07,0.43,0.26,0.43c0.07,0,0.15-0.02,0.23-0.06l2.74-1.35
						c0.16-0.08,0.38-0.12,0.59-0.12c0.22,0,0.44,0.04,0.6,0.13l2.73,1.37c0.09,0.04,0.17,0.06,0.24,0.06c0.19,0,0.3-0.16,0.26-0.42
						L74.2,9.96c-0.05-0.36,0.12-0.88,0.37-1.13l2.15-2.17c0.26-0.26,0.17-0.53-0.19-0.59l-3.01-0.52c-0.36-0.06-0.8-0.38-0.96-0.71
						l-1.4-2.71C71.08,1.97,70.97,1.89,70.86,1.89L70.86,1.89z"/>
				</g>
				<g>
					
						<radialGradient id="SVGID_00000017491761477382748500000010924538411790594974_" cx="66.8544" cy="13.5454" r="12.62" gradientUnits="userSpaceOnUse">
						<stop  offset="0.3548" style="stop-color:#DBDBDB"/>
						<stop  offset="0.5494" style="stop-color:#D4D4D4"/>
						<stop  offset="0.823" style="stop-color:#C2C2C2"/>
						<stop  offset="0.9946" style="stop-color:#B3B3B3"/>
					</radialGradient>
					<path style="fill:url(#SVGID_00000017491761477382748500000010924538411790594974_);" d="M76.73,6.66
						c0.26-0.26,0.17-0.53-0.19-0.59l-3.01-0.52c-0.36-0.06-0.8-0.38-0.96-0.71l-1.4-2.71c-0.08-0.16-0.19-0.21-0.3-0.21v9.93
						c0.2,0.01,0.39,0.04,0.54,0.12l2.73,1.37c0.33,0.16,0.55,0,0.5-0.36L74.2,9.96c-0.05-0.36,0.12-0.88,0.37-1.13L76.73,6.66z"/>
					
						<radialGradient id="SVGID_00000019651702010026654570000013713577358007130261_" cx="65.895" cy="16.6735" r="18.247" gradientUnits="userSpaceOnUse">
						<stop  offset="0.3548" style="stop-color:#DBDBDB"/>
						<stop  offset="0.5494" style="stop-color:#D4D4D4"/>
						<stop  offset="0.823" style="stop-color:#C2C2C2"/>
						<stop  offset="0.9946" style="stop-color:#B3B3B3"/>
					</radialGradient>
					<path style="opacity:0.5;fill:url(#SVGID_00000019651702010026654570000013713577358007130261_);" d="M76.73,6.66
						c0.26-0.26,0.17-0.53-0.19-0.59l-3.01-0.52c-0.36-0.06-0.8-0.38-0.96-0.71l-1.4-2.71c-0.08-0.16-0.19-0.24-0.3-0.24v0.15
						c0.05,0.01,0.11,0.06,0.16,0.16l1.4,2.71c0.19,0.37,0.66,0.71,1.07,0.79l3.01,0.52c0.11,0.02,0.19,0.06,0.21,0.12
						c0.02,0.05-0.02,0.14-0.1,0.22l-2.15,2.17C74.18,9.01,74,9.57,74.05,9.98L74.49,13c0.01,0.1,0,0.18-0.03,0.22
						c-0.01,0.01-0.03,0.03-0.08,0.03c-0.05,0-0.11-0.02-0.17-0.05l-2.73-1.37c-0.17-0.08-0.38-0.13-0.61-0.13v0.15
						c0.2,0.01,0.39,0.04,0.54,0.12l2.73,1.37c0.09,0.04,0.17,0.06,0.24,0.06c0.19,0,0.3-0.16,0.26-0.42L74.2,9.96
						c-0.05-0.36,0.12-0.88,0.37-1.13L76.73,6.66z"/>
				</g>
			</g>
		</g>
	</g>
</g>
</svg>
