<?xml version="1.0" encoding="utf-8"?>
<!-- Generator: Adobe Illustrator 28.1.0, SVG Export Plug-In . SVG Version: 6.00 Build 0)  -->
<svg version="1.1" id="Ebene_1" xmlns="http://www.w3.org/2000/svg" xmlns:xlink="http://www.w3.org/1999/xlink" x="0px" y="0px"
	 viewBox="0 0 984.2 916.2" style="enable-background:new 0 0 984.2 916.2;" xml:space="preserve">
<style type="text/css">
	.st0{fill:#C1D1D3;}
</style>
<g id="Objects">
	<path class="st0" d="M951.2,215.3c-12.9-17-32.6-26.7-53.9-26.7H234L210.5,65.1C206,41.9,185.7,25,162,25H43.5c-8.9,0-16,7.2-16,16
		s7.2,16,16,16H162c8.2,0,15.4,5.9,16.9,14l101.9,534.3l-22.5,41.4c-12.7,23.3-12.1,50.8,1.5,73.6c13.6,22.8,37.5,36.4,64,36.4h27.3
		c-25.9,10.4-44.2,35.7-44.2,65.3c0,38.9,31.5,70.4,70.4,70.4s70.4-31.5,70.4-70.4c0-29.6-18.3-54.9-44.2-65.3h335.7
		c-25.9,10.4-44.2,35.7-44.2,65.3c0,38.9,31.5,70.4,70.4,70.4s70.4-31.5,70.4-70.4c0-29.6-18.3-54.9-44.2-65.3h63.4
		c8.9,0,16-7.2,16-16s-7.2-16-16-16H323.8c-15.1,0-28.7-7.7-36.4-20.7s-8-28.6-0.8-41.9l20.6-38h508.3c30.5,0,57.4-20.6,65.5-50
		l81.7-299.7C968.3,253.8,964.1,232.3,951.2,215.3z M730.7,460.5H601.3V356.1h147.9L730.7,460.5z M782.5,356.1h124.7l-28.5,104.4
		H764L782.5,356.1z M310.9,592L292,492.6h119.5L429,592L310.9,592L310.9,592z M568.5,356.1v104.4H439.1l-18.4-104.4H568.5z M415,324
		l-18.2-103.2h171.8V324H415z M405.8,460.5h-120l-19.9-104.4h121.4L405.8,460.5z M444.7,492.6h123.8V592H462.3L444.7,492.6z
		 M601.3,492.6h123.8L707.5,592H601.3L601.3,492.6L601.3,492.6z M601.3,324V220.8h171.8L754.8,324H601.3z M363.5,220.8L381.7,324
		H259.8l-19.7-103.2L363.5,220.8L363.5,220.8z M850,565.6c-4.2,15.5-18.4,26.4-34.5,26.4h-74.7l17.5-99.4h111.6L850,565.6z
		 M931.8,266l-15.8,58H788.1l18.2-103.2h90.9c11.2,0,21.6,5.1,28.4,14.1C932.5,243.8,934.7,255.1,931.8,266z"/>
</g>
</svg>
