<?xml version="1.0" encoding="utf-8"?>
<!-- Generator: Adobe Illustrator 28.1.0, SVG Export Plug-In . SVG Version: 6.00 Build 0)  -->
<svg version="1.1" id="Layer_1" xmlns="http://www.w3.org/2000/svg" xmlns:xlink="http://www.w3.org/1999/xlink" x="0px" y="0px"
	 viewBox="0 0 2027.3 1174.7" style="enable-background:new 0 0 2027.3 1174.7;" xml:space="preserve">
<style type="text/css">
	.st0{fill-rule:evenodd;clip-rule:evenodd;}
</style>
<g>
	<path class="st0" d="M1239.9,269.9c-29.8,23.1-73.1,62.8-108.2,118.9c-57.9,92.6-79.6,220.2-234.6,308.8
		c16.7,2.3,31.9,8.9,44.7,18.6c25.7-8.6,83-35.7,136.4-115.8c63.4-95.1,98.8-199.6,188.9-280.3L1239.9,269.9z M1422.9,507.1
		l122.3,225.5c24.3,3.7,43,24.7,43,50c0,27.9-22.6,50.6-50.6,50.6c-27.9,0-50.6-22.6-50.6-50.6c0-12.9,4.8-24.6,12.8-33.6l-91.6-169
		l-27.7-51.1c-84.8,52.6-141.2,146.5-141.2,253.7c0,164.8,133.6,298.4,298.4,298.4c164.8,0,298.4-133.6,298.4-298.4
		c0-164.8-133.6-298.4-298.4-298.4C1496.9,484.3,1458.2,492.4,1422.9,507.1z M699.9,818.5H439.4c-9.1,9.1-21.8,14.8-35.7,14.8
		c-27.9,0-50.6-22.6-50.6-50.6c0-27.9,22.6-50.6,50.6-50.6c5.1,0,10,0.8,14.7,2.2l178.8-178.8c-52.1-44.4-119.6-71.2-193.4-71.2
		c-164.8,0-298.4,133.6-298.4,298.4c0,164.8,133.6,298.4,298.4,298.4C556.4,1081,682.3,966.4,699.9,818.5z M452.9,770.7h249
		c-2.7-69.1-29-132.2-71-181.5L452.1,768C452.4,768.9,452.6,769.8,452.9,770.7z M791,770.7c4.3-18.6,14-35.1,27.4-47.8L705.4,514.7
		l-32.2,32.2c52.7,60.2,85.6,138.2,88.4,223.8L791,770.7L791,770.7z M403.7,424.6c90.3,0,172.8,33.4,235.7,88.6l42.3-42.3
		l-59.2-109.3l13.6-0.4l-49.1-85c-8.9,5.9-20.8,11.6-44.2,11.6c-47.7,0-59.7,0-71.6-35.8c-11.9-35.8,24-42.7,79.5-42.2
		c55.5,0.5,135.3,6.4,135.3,6.4s30.7,1.5,27.9,27.6c-3.9,36-66,20.1-99.5,20.1c-2.4,0-4.5,0.2-6.5,0.7l55.3,95.8l12.7-0.4L831,646.2
		c0,0,109.7-18.7,181.4-126.1c66.9-100.3,102.5-211,204.2-293.3l-17.2-31.8l11.9-6.4L1154,89.4l-8.4,4.9c0-0.1-0.1-0.1-0.1-0.2
		c-12.6-21.9-40.9-29.5-62.8-16.8l-57.5,33.2l-27.3,15.8l-21.2-36.7l84.9-49c42.1-24.3,96.4-9.7,120.7,32.3c0,0.1,0.1,0.1,0.1,0.2
		l-7.6,4.4l57.6,99.7l9.1-4.9l153,282.2c43.9-19.2,92.3-29.8,143.3-29.8c197.7,0,358.1,160.3,358.1,358.1
		c0,197.7-160.3,358.1-358.1,358.1c-197.8,0-358.1-160.3-358.1-358.1c0-129.8,69-243.4,172.4-306.2l-61.6-113.5
		c-28.1,23.9-63.3,59.3-92.7,106.3c-56.1,89.8-78.3,212.4-220.8,300.6c1.7,7.2,2.6,14.7,2.6,22.4c0,52.7-42.8,95.5-95.5,95.5
		c-43.6,0-80.4-29.3-91.8-69.2H760c-18,180.9-170.6,322.3-356.3,322.3c-197.8,0-358.1-160.3-358.1-358.1
		C45.6,584.9,206,424.6,403.7,424.6z"/>
	<path class="st0" d="M1012.4,1128.8c547.1,0,990.6,5.3,990.6,11.9c0,6.6-443.5,11.9-990.6,11.9s-990.6-5.3-990.6-11.9
		C21.8,1134.1,465.3,1128.8,1012.4,1128.8"/>
</g>
</svg>
