<?xml version="1.0" encoding="utf-8"?>
<!-- Generator: Adobe Illustrator 28.1.0, SVG Export Plug-In . SVG Version: 6.00 Build 0)  -->
<svg version="1.1" id="box" xmlns="http://www.w3.org/2000/svg" xmlns:xlink="http://www.w3.org/1999/xlink" x="0px" y="0px"
	 viewBox="0 0 137.18 137.94" style="enable-background:new 0 0 137.18 137.94;" xml:space="preserve">
<style type="text/css">
	.st0{fill-rule:evenodd;clip-rule:evenodd;fill:#A23B58;}
	.st1{fill-rule:evenodd;clip-rule:evenodd;fill:url(#SVGID_1_);}
	.st2{fill-rule:evenodd;clip-rule:evenodd;fill:url(#SVGID_00000145035815572640324900000007532336525133407904_);}
	.st3{fill-rule:evenodd;clip-rule:evenodd;fill:url(#SVGID_00000173840932893509309940000017114649182049652106_);}
	.st4{fill-rule:evenodd;clip-rule:evenodd;fill:url(#SVGID_00000128465225908266736010000008013565001209133490_);}
	.st5{fill-rule:evenodd;clip-rule:evenodd;fill:url(#SVGID_00000092439951331526627760000012594714311055260583_);}
	.st6{fill-rule:evenodd;clip-rule:evenodd;fill:url(#SVGID_00000106143653836783217320000014127860269381887670_);}
	.st7{fill-rule:evenodd;clip-rule:evenodd;fill:url(#SVGID_00000003796507900135345700000016662875461152082586_);}
	.st8{fill-rule:evenodd;clip-rule:evenodd;fill:url(#SVGID_00000134249541113323837680000016351002294076551095_);}
	.st9{fill-rule:evenodd;clip-rule:evenodd;fill:url(#SVGID_00000028306703899731483130000015020777203584770455_);}
	.st10{fill-rule:evenodd;clip-rule:evenodd;fill:url(#SVGID_00000144295756398314696320000017656160674515404681_);}
	.st11{fill-rule:evenodd;clip-rule:evenodd;fill:#C34C58;}
	.st12{fill-rule:evenodd;clip-rule:evenodd;fill:#E2705B;}
	.st13{opacity:0.5;fill-rule:evenodd;clip-rule:evenodd;fill:url(#SVGID_00000165912681373035265540000015464772737181239984_);}
	.st14{opacity:0.5;fill-rule:evenodd;clip-rule:evenodd;fill:url(#SVGID_00000155858228321126471760000002553200042594514594_);}
	.st15{opacity:0.5;fill-rule:evenodd;clip-rule:evenodd;fill:url(#SVGID_00000039109553415075565180000012339654702119417745_);}
	.st16{opacity:0.29;fill-rule:evenodd;clip-rule:evenodd;fill:#791B40;}
	.st17{fill-rule:evenodd;clip-rule:evenodd;fill:#DF7668;}
	.st18{fill-rule:evenodd;clip-rule:evenodd;fill:#FFC88B;}
	.st19{opacity:0.5;}
	.st20{fill-rule:evenodd;clip-rule:evenodd;fill:#E3D9D2;}
	.st21{fill-rule:evenodd;clip-rule:evenodd;fill:url(#SVGID_00000057123269431256792530000017815022371516627121_);}
	.st22{opacity:0.5;fill-rule:evenodd;clip-rule:evenodd;fill:#C1748D;}
	.st23{opacity:0.3;fill-rule:evenodd;clip-rule:evenodd;fill:#C1748D;}
	.st24{fill-rule:evenodd;clip-rule:evenodd;fill:url(#SVGID_00000018229241633293900600000002383356919955435396_);}
	.st25{opacity:0.5;fill-rule:evenodd;clip-rule:evenodd;fill:#FF7968;}
	.st26{fill:#C1748D;}
	.st27{fill:#FFFFFF;}
</style>
<g>
	<g>
		<g>
			<path class="st0" d="M22.43,19.87L9.29,52.95l66.19-5.65l19.81-34.46C58.86-0.26,22.43,19.87,22.43,19.87z M39.98,20.22
				l0.92-2.09l36.82-2.77l-0.63,1.86L39.98,20.22z"/>
			<radialGradient id="SVGID_1_" cx="95.4926" cy="54.1092" r="47.5419" gradientUnits="userSpaceOnUse">
				<stop  offset="0.0223" style="stop-color:#FFA874"/>
				<stop  offset="1" style="stop-color:#F49372"/>
			</radialGradient>
			<path class="st1" d="M60.24,58.04l70.1-8.68c0,0,0.35,28.88-7.58,71.07l-58.09,12.62L60.24,58.04z"/>
			
				<linearGradient id="SVGID_00000088119897445754369980000016652994363318527890_" gradientUnits="userSpaceOnUse" x1="35.3704" y1="133.0419" x2="35.3704" y2="52.6271">
				<stop  offset="0.0223" style="stop-color:#D4634D"/>
				<stop  offset="1" style="stop-color:#A94D61"/>
			</linearGradient>
			<path style="fill-rule:evenodd;clip-rule:evenodd;fill:url(#SVGID_00000088119897445754369980000016652994363318527890_);" d="
				M60.24,58.04L6.07,52.63c0,0,1.47,33.54,11.5,69.96l47.1,10.46L60.24,58.04z"/>
			
				<radialGradient id="SVGID_00000089569428011870418260000008450680950576535170_" cx="70.1648" cy="47.3797" r="33.6723" gradientUnits="userSpaceOnUse">
				<stop  offset="0" style="stop-color:#FFCF84"/>
				<stop  offset="0.9777" style="stop-color:#FFB88B"/>
			</radialGradient>
			
				<polygon style="fill-rule:evenodd;clip-rule:evenodd;fill:url(#SVGID_00000089569428011870418260000008450680950576535170_);" points="
				9.29,52.95 76.37,46.74 130.34,49.35 60.24,58.04 			"/>
			
				<radialGradient id="SVGID_00000086689549566075714880000003818501664966934930_" cx="69.449" cy="47.9361" r="31.6694" gradientUnits="userSpaceOnUse">
				<stop  offset="0.0223" style="stop-color:#BD4D4D"/>
				<stop  offset="1" style="stop-color:#9F3E54"/>
			</radialGradient>
			
				<polygon style="fill-rule:evenodd;clip-rule:evenodd;fill:url(#SVGID_00000086689549566075714880000003818501664966934930_);" points="
				12.01,52.63 58.85,56.86 126.23,48.3 76.95,47.4 			"/>
			
				<radialGradient id="SVGID_00000082349633488644997460000001506728332802139827_" cx="48.875" cy="39.6705" r="11.8994" gradientUnits="userSpaceOnUse">
				<stop  offset="0.0223" style="stop-color:#D4634D"/>
				<stop  offset="1" style="stop-color:#A94D61"/>
			</radialGradient>
			
				<polygon style="fill-rule:evenodd;clip-rule:evenodd;fill:url(#SVGID_00000082349633488644997460000001506728332802139827_);" points="
				60.24,58.04 37.38,38.56 37.38,40.19 58.71,58.04 			"/>
			
				<radialGradient id="SVGID_00000062176422592248856450000013370498173766668470_" cx="84.1293" cy="22.6122" r="32.0825" gradientUnits="userSpaceOnUse">
				<stop  offset="0" style="stop-color:#FFCF84"/>
				<stop  offset="0.9777" style="stop-color:#FFB88B"/>
			</radialGradient>
			<path style="fill-rule:evenodd;clip-rule:evenodd;fill:url(#SVGID_00000062176422592248856450000013370498173766668470_);" d="
				M37.38,38.56l14.99-7.93l-5.01-5.7c0,0,16.34-6,36.5-4.08l4.57,4.17l18.08,2.08l23.83,22.24l-70.1,8.68L37.38,38.56z"/>
			
				<radialGradient id="SVGID_00000059267500280334677540000005284183110377610650_" cx="49.8756" cy="25.2833" r="3.4758" gradientUnits="userSpaceOnUse">
				<stop  offset="0.0223" style="stop-color:#D4634D"/>
				<stop  offset="1" style="stop-color:#A94D61"/>
			</radialGradient>
			
				<polygon style="fill-rule:evenodd;clip-rule:evenodd;fill:url(#SVGID_00000059267500280334677540000005284183110377610650_);" points="
				47.36,24.93 47.36,26.78 51.52,31.08 52.37,30.63 			"/>
			
				<radialGradient id="SVGID_00000080910516010732201410000016791426196921692311_" cx="15.1761" cy="21.7533" r="17.8899" gradientUnits="userSpaceOnUse">
				<stop  offset="0.0223" style="stop-color:#D4634D"/>
				<stop  offset="1" style="stop-color:#A94D61"/>
			</radialGradient>
			
				<polygon style="fill-rule:evenodd;clip-rule:evenodd;fill:url(#SVGID_00000080910516010732201410000016791426196921692311_);" points="
				6.07,52.63 9.29,52.95 24.18,20.8 22.42,19.87 			"/>
			
				<radialGradient id="SVGID_00000040551682531752070300000004047275195035282064_" cx="59.0673" cy="8.3759" r="21.1005" gradientUnits="userSpaceOnUse">
				<stop  offset="0" style="stop-color:#FFCF84"/>
				<stop  offset="0.9777" style="stop-color:#FFB88B"/>
			</radialGradient>
			<path style="fill-rule:evenodd;clip-rule:evenodd;fill:url(#SVGID_00000040551682531752070300000004047275195035282064_);" d="
				M24.18,20.8c0,0,36.3-20.61,71.11-7.96l-1.51-1.5c0,0-29.58-12.56-71.35,8.54L24.18,20.8z"/>
			
				<radialGradient id="SVGID_00000023985262742905229570000003833152783451431847_" cx="58.8522" cy="17.7915" r="13.4535" gradientUnits="userSpaceOnUse">
				<stop  offset="0" style="stop-color:#FFCF84"/>
				<stop  offset="0.9777" style="stop-color:#FFB88B"/>
			</radialGradient>
			
				<polygon style="fill-rule:evenodd;clip-rule:evenodd;fill:url(#SVGID_00000023985262742905229570000003833152783451431847_);" points="
				40.39,19.3 75.2,16.69 75.73,15.51 77.72,15.36 77.1,17.22 39.98,20.22 			"/>
			<polygon class="st11" points="75.2,16.69 77.1,17.22 77.72,15.36 75.73,15.51 			"/>
			<polygon class="st12" points="9.29,52.95 40.91,43.14 58.71,58.04 			"/>
			
				<linearGradient id="SVGID_00000049184746085459762600000006872974310127143813_" gradientUnits="userSpaceOnUse" x1="64.672" y1="122.3336" x2="122.7648" y2="122.3336">
				<stop  offset="0" style="stop-color:#D3B8D6"/>
				<stop  offset="1" style="stop-color:#FFFFFF"/>
			</linearGradient>
			
				<path style="opacity:0.5;fill-rule:evenodd;clip-rule:evenodd;fill:url(#SVGID_00000049184746085459762600000006872974310127143813_);" d="
				M122.76,120.42c0,0-17.56-10.1-29.85-8.65c-12.3,1.44-28.24,21.28-28.24,21.28L122.76,120.42z"/>
			
				<linearGradient id="SVGID_00000035505973780946697050000003062734882751400333_" gradientUnits="userSpaceOnUse" x1="17.5697" y1="127.6081" x2="64.672" y2="127.6081">
				<stop  offset="0" style="stop-color:#D3B8D6"/>
				<stop  offset="1" style="stop-color:#FFFFFF"/>
			</linearGradient>
			
				<path style="opacity:0.5;fill-rule:evenodd;clip-rule:evenodd;fill:url(#SVGID_00000035505973780946697050000003062734882751400333_);" d="
				M64.67,133.04c0,0-25.36-10.24-30.67-10.71s-16.43,0.25-16.43,0.25L64.67,133.04z"/>
			
				<linearGradient id="SVGID_00000119800006432776660640000000227770919571389851_" gradientUnits="userSpaceOnUse" x1="9.2894" y1="59.9242" x2="58.7064" y2="59.9242">
				<stop  offset="0" style="stop-color:#D3B8D6"/>
				<stop  offset="1" style="stop-color:#FFFFFF"/>
			</linearGradient>
			
				<path style="opacity:0.5;fill-rule:evenodd;clip-rule:evenodd;fill:url(#SVGID_00000119800006432776660640000000227770919571389851_);" d="
				M9.29,52.95c0,0,16.88,11.94,23.73,13.74s25.69-8.65,25.69-8.65L9.29,52.95z"/>
			<polygon class="st16" points="9.29,52.95 45.21,46.74 40.91,43.14 			"/>
			<path class="st17" d="M60.24,58.04l4.43,75.01C64.67,133.04,59.88,104.74,60.24,58.04z"/>
			<path class="st18" d="M65.7,57.36c0,0,44.77-2.52,64.64-8.01L65.7,57.36z"/>
			<g class="st19">
				<path class="st20" d="M75.32,68.75c0.11,0.6,0.42,0.92,1.12,0.78c0.45-0.09,0.72-0.48,0.63-0.96c-0.08-0.48-0.57-0.88-1.07-0.82
					C75.49,67.82,75.23,68.48,75.32,68.75z"/>
				<path class="st20" d="M92.27,75.52c0.06-0.67,0.76-1.04,1.35-1.1c0.5-0.05,0.95,0.08,1.38,0.36c0.42,0.27,0.75,0.74,0.54,1.24
					c-0.07,0.17-0.27,0.53-0.42,0.65c-0.22,0.18-0.66,0.06-0.9,0.02c-0.45-0.08-0.62-0.23-0.93-0.52C93,75.9,92.25,76.1,92.27,75.52
					z"/>
				<path class="st20" d="M75.76,66.17c-0.39,0.16-0.95,0.76-0.38,1.01c0.31,0.14,1.26-0.04,1.52-0.24c1.06-0.81-0.62-1.51-1.3-0.65
					L75.76,66.17z"/>
				<path class="st20" d="M76.27,71.35c0.38-0.68,1.09,0.1,0.63,0.48c-0.31,0.26-0.66,0-0.71-0.33L76.27,71.35z"/>
				<path class="st20" d="M77.31,68.78c0.26-0.45,0.72,0.06,0.42,0.32c-0.2,0.17-0.44,0-0.47-0.22L77.31,68.78z"/>
				<path class="st20" d="M76.31,106.28c-0.88,1.19,0.73,2.57,1.37,1.14c0.34-0.77-0.32-1.7-1.07-1.14H76.31z"/>
				<path class="st20" d="M68.93,67.27c-0.12-0.23-0.23-0.17-0.35-0.02c-0.21,0.24-0.07,0.3,0.08,0.48c0.33,0.41,0.62,0.4,1.07,0.11
					c0.36-0.23,0.97-0.87,0.31-1.19c-0.28-0.13-0.86,0.06-1.03,0.27L68.93,67.27z"/>
				<path class="st20" d="M67.49,67.73c-0.07-0.58,0.8,0.17,0.42,0.49c-0.32,0.27-0.53-0.29-0.42-0.53V67.73z"/>
				<path class="st20" d="M69.24,65.71c0.24,0.39,0.74-0.16,0.56-0.41c-0.21-0.3-0.52,0.19-0.6,0.33L69.24,65.71z"/>
				<path class="st20" d="M69.99,115.07c0.15-0.48,0.74-0.04,0.81,0.27c0.1,0.43-0.27,1-0.73,1.04c-0.71,0.07-0.89-1.03-0.27-1.28
					L69.99,115.07z"/>
				<path class="st20" d="M76.57,115.95c-0.42,0.61,1,0.74,0.99,0.05c-0.01-0.55-0.83-0.55-0.99-0.09V115.95z"/>
				<path class="st20" d="M70.67,103.99c-0.29-0.37,0.1-0.94,0.54-0.87c0.58,0.08,0.59,0.88,0.39,1.27
					c-0.43,0.87-1.61,0.28-1.13-0.56L70.67,103.99z"/>
				<path class="st20" d="M69.08,59.7c-0.51,1.2,1.46,0.78,1.56-0.19C70.78,58.34,69.23,58.65,69.08,59.7z"/>
				<path class="st20" d="M95.43,73.9c-0.56,0.76,0.9,1.13,1.02,0.17c-0.29-0.37-0.83-0.46-1.18-0.09L95.43,73.9z"/>
				<path class="st20" d="M87.83,83.09c1.22-1.56,3.59-2.18,5.27-1.03c0.44,0.3,1.07,0.85,0.54,1.34c-0.46,0.43-2.65,0.01-3.26,0.01
					C89.5,83.4,88.59,83.44,87.83,83.09z"/>
				<path class="st20" d="M83.55,82.3c0.1,0.7,1.33,0.46,1.15-0.12c-0.12-0.38-0.79-0.48-0.91-0.12L83.55,82.3z"/>
				<path class="st20" d="M58.15,47.91c-0.23,1.09,1.15,0.87,1.15-0.01c0-0.72-0.95-0.98-1.15-0.22V47.91z"/>
				<path class="st20" d="M67.64,77.97c0.11-0.18,0.26-0.29,0.45-0.35c0.71,0.94-0.87,1.58-0.45,0.46V77.97z"/>
				<path class="st20" d="M60.21,25.84c-1.1,2.81,3.53,0.85,4.2-0.45c0.7-1.34-1.07-1.57-2.07-1.39
					C61.17,24.22,60.25,25.07,60.21,25.84z"/>
				<path class="st20" d="M64.55,26.51c0.11-0.62,1.28-1.16,1.14-0.22c-0.08,0.53-0.83,0.88-1.04,0.31L64.55,26.51z"/>
				<path class="st20" d="M102.6,49.99c-1.16,1.62,3.7,1.64,3.92,0.03c0.23-1.66-3.49-1.09-4.02-0.13L102.6,49.99z"/>
				<path class="st20" d="M106.01,48.09c0.1-1,1.49-0.56,1.19,0.04c-0.24,0.5-0.94,0.14-1.19-0.14V48.09z"/>
				<path class="st20" d="M109.72,49.29c0.46-0.01,0.89-0.11,1.29-0.31c-0.11-0.9-1.23-0.7-1.5,0.01c0.04,0.14,0.13,0.12,0.21,0.2
					V49.29z"/>
				<path class="st20" d="M86.86,34.38c-0.01-0.38,0.1-0.57,0.48-0.59c0.47,0.39,0.35,1.14-0.28,0.99L86.86,34.38z"/>
				<path class="st20" d="M85.71,74.25c-1.74,1.46,2,1.03,0.32,0.21L85.71,74.25z"/>
				<path class="st20" d="M78.32,78.18c-0.43,0.44-0.26,1.34,0.5,1.02c0.58-0.25,0.45-1.27-0.26-0.94L78.32,78.18z"/>
				<path class="st20" d="M81.81,80.55c0.14-0.48,0.75-0.49,0.72,0c-0.02,0.41-0.43,0.37-0.56,0.08L81.81,80.55z"/>
				<path class="st20" d="M117.3,106.15c0.11,0.6,0.42,0.92,1.12,0.78c0.45-0.09,0.71-0.48,0.63-0.96
					c-0.08-0.48-0.57-0.88-1.07-0.82C117.48,105.22,117.22,105.88,117.3,106.15z"/>
				<path class="st20" d="M89.85,34.48c0.06-0.67,0.76-1.04,1.35-1.1c0.5-0.05,0.95,0.08,1.38,0.36c0.42,0.27,0.75,0.74,0.54,1.24
					c-0.07,0.17-0.27,0.53-0.42,0.65c-0.22,0.18-0.66,0.06-0.9,0.02c-0.45-0.08-0.62-0.23-0.93-0.52
					C90.59,34.86,89.83,35.07,89.85,34.48z"/>
				<path class="st20" d="M117.74,103.57c-0.39,0.16-0.95,0.76-0.38,1.01c0.31,0.14,1.26-0.04,1.52-0.24
					c1.06-0.81-0.62-1.51-1.3-0.65L117.74,103.57z"/>
				<path class="st20" d="M118.25,108.74c0.38-0.68,1.09,0.1,0.63,0.48c-0.31,0.26-0.66,0-0.71-0.33L118.25,108.74z"/>
				<path class="st20" d="M119.29,106.18c0.26-0.45,0.72,0.06,0.42,0.32c-0.2,0.17-0.44,0-0.47-0.22L119.29,106.18z"/>
				<path class="st20" d="M106.26,108.11c-0.88,1.19,0.73,2.57,1.37,1.14c0.34-0.77-0.32-1.7-1.07-1.14H106.26z"/>
				<path class="st20" d="M108.92,111.54c-0.12-0.23-0.23-0.17-0.35-0.02c-0.21,0.24-0.07,0.3,0.08,0.48
					c0.33,0.41,0.62,0.4,1.07,0.11c0.36-0.23,0.97-0.87,0.31-1.19c-0.28-0.13-0.86,0.06-1.03,0.27L108.92,111.54z"/>
				<path class="st20" d="M107.48,111.99c-0.07-0.58,0.8,0.17,0.42,0.49c-0.32,0.27-0.53-0.29-0.42-0.53V111.99z"/>
				<path class="st20" d="M109.23,109.98c0.24,0.39,0.74-0.16,0.56-0.41c-0.21-0.3-0.52,0.19-0.6,0.33L109.23,109.98z"/>
				<path class="st20" d="M61.49,36.92c-0.42,0.61,1,0.74,0.99,0.05c-0.01-0.55-0.83-0.55-0.99-0.09V36.92z"/>
				<path class="st20" d="M109.07,103.96c-0.51,1.2,1.46,0.78,1.56-0.19C110.77,102.61,109.22,102.91,109.07,103.96z"/>
				<path class="st20" d="M93.01,32.86c-0.56,0.76,0.9,1.13,1.02,0.17c-0.29-0.37-0.83-0.46-1.18-0.09L93.01,32.86z"/>
				<path class="st20" d="M85.41,42.05c1.22-1.56,3.59-2.18,5.27-1.03c0.44,0.3,1.07,0.85,0.54,1.34c-0.46,0.43-2.65,0.01-3.26,0.01
					C87.08,42.36,86.17,42.4,85.41,42.05z"/>
				<path class="st20" d="M78.5,45.7c0.1,0.7,1.33,0.46,1.15-0.12c-0.12-0.38-0.79-0.48-0.91-0.12L78.5,45.7z"/>
				<path class="st20" d="M62.59,41.38c0.11-0.18,0.26-0.29,0.45-0.35c0.71,0.94-0.87,1.58-0.45,0.46V41.38z"/>
				<path class="st20" d="M122.21,98.45c-1.74,1.46,2,1.03,0.32,0.21L122.21,98.45z"/>
				<path class="st20" d="M73.28,41.58c-0.43,0.44-0.26,1.34,0.5,1.02c0.58-0.25,0.45-1.27-0.26-0.94L73.28,41.58z"/>
				<path class="st20" d="M76.76,43.96c0.14-0.48,0.75-0.49,0.72,0c-0.02,0.41-0.43,0.37-0.56,0.08L76.76,43.96z"/>
				<path class="st20" d="M47.88,60.15c0.26-0.15,0.47-0.35,0.62-0.6c-0.41-0.36-0.43-0.08-0.62,0.26V60.15z"/>
			</g>
			<g>
				
					<linearGradient id="SVGID_00000150802967571439185780000005931180134929055619_" gradientUnits="userSpaceOnUse" x1="100.6929" y1="118.9971" x2="100.6929" y2="100.7285">
					<stop  offset="0.0316" style="stop-color:#F7E8E8"/>
					<stop  offset="1" style="stop-color:#FFF2E3"/>
				</linearGradient>
				
					<polygon style="fill-rule:evenodd;clip-rule:evenodd;fill:url(#SVGID_00000150802967571439185780000005931180134929055619_);" points="
					90.64,119 89.15,103.2 112.24,100.73 111.13,115.04 				"/>
				<polygon class="st22" points="92.49,105.64 109.86,103.4 109.68,105.91 92.86,108.23 				"/>
				<polygon class="st22" points="94.67,113.67 107.71,112.12 107.71,112.71 94.79,114.49 				"/>
				<polygon class="st23" points="97.64,108.44 98.03,112.4 105.31,111.61 105.68,107.44 				"/>
			</g>
			<g>
				
					<linearGradient id="SVGID_00000034054060650543238680000009524202534869186475_" gradientUnits="userSpaceOnUse" x1="96.9284" y1="96.5648" x2="96.9284" y2="60.8713">
					<stop  offset="0.0316" style="stop-color:#F7E8E8"/>
					<stop  offset="1" style="stop-color:#FFF2E3"/>
				</linearGradient>
				
					<ellipse style="fill-rule:evenodd;clip-rule:evenodd;fill:url(#SVGID_00000034054060650543238680000009524202534869186475_);" cx="96.93" cy="78.72" rx="14.34" ry="17.85"/>
				<ellipse class="st25" cx="97.92" cy="78.72" rx="11.85" ry="14.75"/>
				<g class="st19">
					<path class="st26" d="M97.92,64.47c6.26,0,11.35,6.39,11.35,14.25c0,7.86-5.09,14.25-11.35,14.25
						c-6.26,0-11.35-6.39-11.35-14.25C86.57,70.86,91.66,64.47,97.92,64.47L97.92,64.47z M97.92,63.97
						c-6.54,0-11.85,6.6-11.85,14.75s5.31,14.75,11.85,14.75c6.54,0,11.85-6.6,11.85-14.75S104.46,63.97,97.92,63.97L97.92,63.97z"
						/>
				</g>
			</g>
			<g>
				<path class="st27" d="M93.24,77.69l0.33-0.04v0.77l-0.36,0.04c-0.06,0.01-0.12,0.01-0.17,0.02c-0.07,0.01-0.13,0.02-0.19,0.02
					c-0.03,0-0.06,0.01-0.1,0.01c-0.04,0-0.08,0.01-0.11,0.01c-0.18,0.02-0.59,0.11-1.24,0.28l-0.09-0.75l0.07-0.02v-1.03
					c0-0.44-0.01-1.01-0.02-1.7c-0.01-0.69-0.02-1.26-0.02-1.71c0-0.17,0.01-0.39,0.02-0.66c0.01-0.3,0.02-0.52,0.03-0.66l0.72-0.07
					v0.23c0,0.07-0.01,0.25-0.03,0.53c-0.01,0.21-0.01,0.39-0.01,0.54c0,0.45,0.01,1.02,0.02,1.71c0.01,0.69,0.02,1.26,0.02,1.71
					v0.93c0.2-0.04,0.38-0.07,0.54-0.09c0.03,0,0.07-0.01,0.11-0.01c0.04-0.01,0.08-0.01,0.1-0.01c0.09-0.01,0.15-0.02,0.2-0.02
					C93.11,77.7,93.18,77.69,93.24,77.69z"/>
				<path class="st27" d="M95.45,72.38c0.09,0.19,0.16,0.53,0.22,1.04c0.1,0.8,0.15,1.54,0.15,2.21c0,1.76-0.32,2.68-0.96,2.76
					c-0.8,0.09-1.2-1.04-1.2-3.4c0-2.06,0.47-3.14,1.42-3.25c0.08-0.01,0.27,0.05,0.57,0.18L95.45,72.38z M94.77,72.71
					c-0.26,0.34-0.38,1.07-0.38,2.2c0,0.49,0.02,0.95,0.07,1.39c0.08,0.72,0.2,1.16,0.38,1.31c0.17-0.34,0.25-0.97,0.25-1.89
					c0-0.41-0.02-0.89-0.07-1.46C94.96,73.48,94.88,72.97,94.77,72.71z"/>
				<path class="st27" d="M97.55,75.71c0.17,0.41,0.34,0.82,0.51,1.23c0.19,0.43,0.39,0.82,0.62,1.19l-0.62,0.47
					c-0.3-0.5-0.6-1.11-0.91-1.84c0.03,0.46,0.04,0.79,0.04,1.01v0.39l-0.72,0.08v-0.39c0-0.12-0.02-0.55-0.06-1.28
					c-0.01-0.2-0.01-0.6,0-1.2c0.01-0.5,0-0.9-0.04-1.2c-0.05-0.45-0.08-0.97-0.09-1.56v-0.04c0-0.06,0-0.12,0.01-0.19l-0.12-0.29
					l0.17-0.1l0.04-0.18l0.23,0.03c0.21-0.12,0.41-0.19,0.58-0.21c0.71-0.08,1.07,0.47,1.07,1.65
					C98.26,74.05,98.02,74.86,97.55,75.71z M97.14,74.97c0.26-0.54,0.39-1.08,0.39-1.59c0-0.67-0.11-0.99-0.34-0.96
					c-0.05,0.01-0.11,0.02-0.18,0.05c0,0.27,0.02,0.68,0.07,1.24C97.12,74.26,97.14,74.68,97.14,74.97z"/>
				<path class="st27" d="M99.4,77.89l-0.1,0.21l-0.29-0.14l-0.06,0.01l-0.01-0.06l-0.27-0.12c0.05-0.1,0.11-0.23,0.19-0.38
					c-0.01-0.15-0.02-0.52-0.02-1.11c0-0.41,0-0.79-0.01-1.13l-0.15-0.31c0.05-0.03,0.09-0.06,0.12-0.08v-0.14
					c-0.02-0.38-0.06-0.74-0.1-1.07v-1.25v-0.77l0.36-0.04c0.07-0.01,0.16-0.03,0.26-0.05c0.11-0.03,0.19-0.05,0.26-0.05
					c0.09-0.01,0.23-0.01,0.42-0.01c0.19,0.01,0.33,0.01,0.42-0.01l0.36-0.04v0.77c-0.36,0.05-0.64,0.07-0.84,0.06
					c-0.16-0.01-0.28-0.01-0.37,0c-0.05,0.01-0.1,0.01-0.14,0.02v1.25c0.03,0.31,0.06,0.65,0.09,1.02c0.1-0.02,0.32-0.05,0.66-0.09
					c0.09-0.01,0.26-0.06,0.51-0.15l0.17,0.73c-0.31,0.11-0.56,0.18-0.74,0.2c-0.29,0.03-0.47,0.06-0.55,0.08c0,0.32,0,0.65,0,1
					c0,0.56,0,0.85,0,0.87c0.08-0.01,0.23-0.05,0.46-0.1c0.18-0.05,0.34-0.08,0.47-0.09l0.36-0.04v0.77l-0.36,0.04
					c-0.12,0.01-0.29,0.05-0.54,0.11C99.71,77.85,99.53,77.88,99.4,77.89z"/>
				<path class="st27" d="M104.23,70.93c-0.02,0.06-0.04,0.18-0.04,0.36c0,0.39,0.02,0.9,0.07,1.54c0.03,0.44,0.05,0.96,0.05,1.55
					c0,0.3-0.01,0.74-0.02,1.34c-0.01,0.59-0.02,1.03-0.02,1.32v0.39l-0.72,0.08v-0.39c0-0.29,0.01-0.73,0.02-1.31
					c0.01-0.59,0.02-1.03,0.02-1.33c0-0.57-0.02-1.07-0.05-1.51l-0.02-0.28c-0.12,0.48-0.25,1.13-0.4,1.93
					c0.06,0.17,0.1,0.32,0.13,0.45l-0.22,0.08L103,75.35l-0.36-0.04l-0.09,0.03l-0.01-0.05l-0.25-0.02c0.02-0.14,0.06-0.32,0.1-0.55
					c-0.08-0.29-0.19-0.63-0.32-1.04c0.02,0.33,0.03,0.6,0.04,0.81c0.02,0.18,0.05,0.45,0.09,0.83c0.01,0.26,0.01,0.57-0.01,0.94
					c-0.01,0.45-0.02,0.76-0.02,0.91v0.39l-0.72,0.08v-0.39c0-0.15,0.01-0.45,0.02-0.9c0.01-0.36,0.02-0.67,0.01-0.92
					c-0.02-0.17-0.05-0.45-0.09-0.85c0-0.23-0.02-0.69-0.06-1.38c-0.03-0.58-0.04-1.04-0.04-1.38c0-0.23,0-0.45,0.01-0.65
					l-0.04-0.15l0.7-0.28l0.06,0.24l0.01,0v0.02l0.03,0.1c0.08,0.32,0.19,0.68,0.33,1.07c0.17,0.51,0.27,0.82,0.31,0.95
					c0.14-0.64,0.3-1.2,0.48-1.68c0.06-0.15,0.12-0.41,0.17-0.79l0.24,0.01c0.01-0.02,0.06-0.14,0.14-0.35l0.66,0.26L104.23,70.93z"
					/>
				<path class="st27" d="M93.09,81.62c0.02,0.28,0.05,0.71,0.09,1.29c0,0.15,0.03,0.35,0.07,0.58c0.04,0.23,0.06,0.42,0.07,0.54
					c0.01,0.21,0.02,0.46,0.02,0.73v0.93c0,0.29,0.01,0.56,0.02,0.79c0.03,0.52,0.04,0.81,0.04,0.88v0.39l-0.72,0.08v-0.39
					c0-0.05-0.01-0.33-0.04-0.84c-0.01-0.16-0.02-0.74-0.02-1.72c0-0.27-0.01-0.52-0.02-0.73c-0.03-0.23-0.08-0.6-0.13-1.13
					c-0.02-0.37-0.06-0.93-0.11-1.66l0.72-0.14L93.09,81.62z"/>
				<path class="st27" d="M93.88,81.39l0.34-0.41l0.15,0.14c0.16-0.06,0.31-0.1,0.46-0.11c0.38-0.04,0.64,0.09,0.78,0.4
					c0.1,0.21,0.15,0.53,0.15,0.96c0,0.44-0.02,0.94-0.07,1.5c-0.07,0.76-0.16,1.25-0.27,1.46c-0.11,0.21-0.33,0.4-0.65,0.57
					c0.04,0.43,0.04,0.79-0.01,1.06c-0.02,0.12-0.02,0.23-0.01,0.31c0.02,0.11,0.04,0.22,0.06,0.34l-0.72,0.23
					c-0.04-0.22-0.06-0.4-0.06-0.55c0-0.07,0.01-0.16,0.02-0.27c0.01-0.11,0.02-0.2,0.02-0.28c0-0.06,0-0.12-0.01-0.18
					c-0.07-0.82-0.1-1.35-0.1-1.59c0-0.29-0.01-0.74-0.04-1.36c-0.02-0.59-0.04-1.04-0.04-1.35l-0.01,0.01l-0.35-0.64L93.88,81.39z
					 M94.71,85.09c0.1-0.07,0.15-0.18,0.17-0.32c0.01-0.25,0.03-0.51,0.05-0.76c0.07-0.85,0.1-1.36,0.1-1.55
					c0-0.23,0-0.36-0.01-0.41c-0.02-0.19-0.09-0.28-0.19-0.26c-0.07,0.01-0.14,0.02-0.2,0.05v0.11
					C94.62,82.63,94.65,83.68,94.71,85.09z"/>
				<path class="st27" d="M97.47,81.38c-0.38,0.33-0.57,0.73-0.57,1.2c0,0.33,0.12,0.79,0.36,1.37c0.24,0.58,0.36,1.08,0.36,1.49
					c0,0.48-0.11,0.92-0.33,1.31c-0.16,0.29-0.45,0.63-0.85,1.04l-0.46-0.53c0.32-0.33,0.54-0.58,0.65-0.76
					c0.17-0.29,0.26-0.61,0.26-0.97c0-0.33-0.12-0.79-0.36-1.37c-0.24-0.58-0.36-1.08-0.36-1.48c0-0.45,0.11-0.85,0.33-1.2
					c0.17-0.28,0.45-0.58,0.84-0.92l0.42,0.58L97.47,81.38z"/>
				<path class="st27" d="M99.06,86.37c0.12-0.24,0.18-0.56,0.18-0.98c0-0.1,0-0.25-0.01-0.45c-0.01-0.19-0.01-0.33-0.01-0.41
					c0-0.24-0.02-0.6-0.06-1.08c-0.04-0.48-0.06-0.83-0.06-1.08c0-0.12,0-0.24,0-0.35c0.01-0.2,0.01-0.38,0-0.53v-0.78l0.72-0.08
					v0.7c0.02,0.15,0.03,0.35,0.02,0.59c-0.02,0.31-0.03,0.5-0.02,0.6c0.09,1.39,0.13,2.28,0.13,2.66c0,1.05-0.23,1.72-0.69,2
					c-0.08,0.04-0.16,0.07-0.24,0.08c-0.33,0.04-0.57-0.22-0.73-0.77c-0.12-0.4-0.19-0.96-0.21-1.68c0-0.43-0.01-0.85-0.01-1.28
					c-0.05-1.35-0.07-1.99-0.07-1.9c0-0.07,0-0.17,0-0.29c0-0.12,0-0.21,0-0.28v-0.39l0.72-0.08v0.39c0,0.07,0,0.16,0,0.28
					c0,0.12,0,0.22,0,0.29c0,0.28,0.01,0.75,0.03,1.43c0.02,0.6,0.03,1.08,0.03,1.42c-0.02,0.77,0.07,1.41,0.25,1.91L99.06,86.37z"
					/>
				<path class="st27" d="M103.34,80.29c-0.02,0.06-0.04,0.18-0.04,0.36c0,0.39,0.02,0.9,0.07,1.54c0.03,0.44,0.05,0.96,0.05,1.55
					c0,0.3-0.01,0.74-0.02,1.34c-0.01,0.59-0.02,1.03-0.02,1.32v0.39l-0.72,0.08v-0.39c0-0.29,0.01-0.73,0.02-1.31
					c0.01-0.59,0.02-1.03,0.02-1.33c0-0.57-0.02-1.07-0.05-1.51l-0.02-0.28c-0.12,0.48-0.25,1.13-0.4,1.93
					c0.06,0.17,0.1,0.32,0.13,0.45l-0.22,0.08l-0.04,0.18l-0.36-0.04l-0.09,0.03l-0.01-0.05l-0.25-0.02
					c0.02-0.14,0.06-0.32,0.1-0.55c-0.08-0.29-0.19-0.63-0.32-1.04c0.02,0.33,0.03,0.6,0.04,0.81c0.02,0.18,0.05,0.45,0.09,0.83
					c0.01,0.26,0.01,0.57-0.01,0.94c-0.01,0.45-0.02,0.76-0.02,0.91v0.39L100.55,87v-0.39c0-0.15,0.01-0.45,0.02-0.9
					c0.01-0.36,0.02-0.67,0.01-0.92c-0.02-0.17-0.05-0.45-0.09-0.85c0-0.23-0.02-0.69-0.06-1.38c-0.03-0.58-0.04-1.04-0.04-1.38
					c0-0.23,0-0.45,0.01-0.65l-0.04-0.15l0.7-0.28l0.06,0.24l0.01,0v0.02l0.03,0.1c0.08,0.32,0.19,0.68,0.33,1.07
					c0.17,0.51,0.27,0.82,0.31,0.95c0.14-0.64,0.3-1.2,0.48-1.68c0.06-0.15,0.12-0.41,0.17-0.79l0.24,0.01
					c0.01-0.02,0.06-0.14,0.14-0.35l0.66,0.26L103.34,80.29z"/>
			</g>
		</g>
	</g>
</g>
</svg>
